<?xml version="1.0" encoding="UTF-8"?>
<!DOCTYPE svg PUBLIC "-//W3C//DTD SVG 1.1//EN" "http://www.w3.org/Graphics/SVG/1.1/DTD/svg11.dtd">
<!-- Creator: CorelDRAW 2026 -->
<svg xmlns="http://www.w3.org/2000/svg" xml:space="preserve" width="0.533335in" height="0.533335in" version="1.1" style="shape-rendering:geometricPrecision; text-rendering:geometricPrecision; image-rendering:optimizeQuality; fill-rule:evenodd; clip-rule:evenodd"
viewBox="0 0 27.21 27.21"
 xmlns:xlink="http://www.w3.org/1999/xlink"
 xmlns:xodm="http://www.corel.com/coreldraw/odm/2003">
 <defs>
  <style type="text/css">
   <![CDATA[
    .fil1 {fill:#00A3F5}
    .fil0 {fill:#0A0A0B}
    .fil2 {fill:white}
   ]]>
  </style>
 </defs>
 <g id="Layer_x0020_1">
  <metadata id="CorelCorpID_0Corel-Layer"/>
  <rect class="fil0" x="0" y="0" width="27.21" height="27.21"/>
  <g id="_1293249334368">
   <path class="fil1" d="M13.63 6.45c0.97,0 1.89,0.2 2.73,0.57l-0.24 0c-7.42,0 -7.42,12.98 0,12.98l0.63 0c-0.94,0.49 -2,0.76 -3.12,0.76 -3.84,0 -6.94,-3.21 -6.94,-7.16 0,-3.95 3.11,-7.16 6.94,-7.16z"/>
   <path class="fil2" d="M18.98 9.04c0.78,0.97 1.32,2.16 1.51,3.47l-3.8 0c-0.43,-0.01 -0.8,-0.17 -1.1,-0.47 -0.3,-0.3 -0.45,-0.67 -0.45,-1.1l0 -0.33c0,-0.43 0.15,-0.8 0.45,-1.1 0.3,-0.3 0.67,-0.45 1.1,-0.45l2.29 0z"/>
   <path class="fil2" d="M20.52 14.51c-0.16,1.3 -0.65,2.48 -1.39,3.47l-2.43 0c-0.42,0 -0.79,-0.15 -1.09,-0.45 -0.31,-0.3 -0.46,-0.67 -0.46,-1.1l0 -0.33c0,-0.43 0.15,-0.8 0.45,-1.1 0.3,-0.3 0.67,-0.46 1.1,-0.47l3.83 0z"/>
  </g>
 </g>
</svg>
